<svg xmlns="http://www.w3.org/2000/svg" id="Layer_2" data-name="Layer 2" viewBox="0 0 493.93 322.68"><defs><style>      .cls-1 {        fill: #fff;      }      .cls-2 {        fill: #0099d9;      }      .cls-3 {        fill: #231f20;      }    </style></defs><g id="Layer_1-2" data-name="Layer 1"><g><rect class="cls-3" y="161" width="493.93" height="161.68"/><path class="cls-1" d="M163.33,235.65c-8.03,0-13.65,5.03-13.65,13.55s5.62,13.56,13.65,13.56,13.66-5.03,13.66-13.56-5.62-13.55-13.66-13.55m0,21.92c-4.64,0-6.11-4.32-6.11-8.37s1.48-8.37,6.11-8.37,6.13,4.32,6.13,8.37-1.48,8.37-6.13,8.37m-31,0c-7.6,0-10.93-5.69-10.93-12.57s2.35-14.32,10.38-14.32c5.3,0,8.96,3.39,9.01,8.79h6.83v-13.22h-6.83v4.15l-.1-.11c-2.41-3.61-5.96-4.81-10.23-4.81-11.41,0-17.04,7.98-17.04,18.92s6.07,18.36,18.64,18.36c7.04,0,15.51-3.12,15.67-13.11h-7.26c-.16,4.69-3.72,7.92-8.13,7.92m306.24-.72v-31.6h-10.82v4.91h3.55v9.78h-.1c-1.2-2.46-3.6-4.54-7.93-4.54-6.67,0-11.48,4.54-11.48,13.94,0,6.89,3.61,13.18,11.05,13.18,4.53,0,6.77-1.42,9.07-5.03h.11v4.27h10.11v-4.92h-3.55Zm-13.82,.49c-3.11,0-5.41-2.84-5.41-8.37,0-4.21,1.42-8.36,6.07-8.36s6.33,3.77,6.33,7.98c0,5.41-1.53,8.75-6.99,8.75m-236.75-31.86h-10.82v4.92h3.56v26.68h-3.56v4.93h14.37v-4.93h-3.55v-31.6Zm-91.19-6.21s-1.75-.74-2.94-1c-1.56-.46-2.93-.69-4.53-.97-2.18-.39-7.91-.93-8.88-.97-.31,0-.15-.34-.02-.53,.33-.48,.75-.92,1.11-1.39,.74-.97,1.27-2.06,1.55-3.21,.32-1.31,.42-2.69,.29-4.03-.05-.49-.13-.98-.28-1.45-.07-.23-.17-.57-.41-.7-.21-.11-.53,0-.74,.05-.46,.13-.89,.34-1.32,.56-2.58,1.34-5.05,3.2-6.5,5.67-.58,.99-.98,2.05-1.08,3.18-.02,.33-.02,.65-.04,.98,0,.21-.02,.45-.13,.62-.14,.24-.43,.32-.7,.35-.54,.06-3.81,.42-4.88,.59-2.41,.4-4.82,.92-7.12,1.7-.86,.28-1.71,.65-2.52,1.08-.04,.02-.08,.04-.13,.07-.36,.2-.74,.4-1.08,.63-.04,.03-.08,.05-.11,.08-.38,.24-.73,.51-1.07,.8-.23,.19-.44,.4-.66,.61-.08,.08-.17,.16-.24,.24-.1,.11-.21,.19-.3,.29-.42,.48-.78,1.03-1.11,1.61-.03,.05-.06,.1-.09,.16-.13,.23-.23,.48-.33,.74-.07,.16-.14,.31-.2,.47-.04,.09-.05,.18-.08,.27-.1,.3-.19,.59-.26,.9-.17,.75-.2,1.5-.18,2.21,.01,.26,.04,.51,.06,.76,.02,.16,.04,.32,.06,.48,.02,.15,.05,.31,.08,.46,.37,1.93,1.11,3.36,1.11,3.36,.73,1.58,1.78,3.53,3.33,5.12,0,0,.25,.33,.24,.79,.06,1.14,.33,3.71,1.45,7.01,2.73,8.29,8.48,14.44,12.02,17.27,0,0,1.89,1.55,2.63,2.2,1.03,.9,2.94,2.2,2.94,2.2,.74,.43,1.07,.65,2.08,.65,1.2,0,2.07-.58,2.93-1.15,1.08-.72,5.4-4.44,5.4-4.44,4.59-4.06,11.93-11.87,12.75-23.71-.03-.47,.23-.81,.23-.81,1.54-1.59,2.6-3.54,3.33-5.12,0,0,1.91-3.7,1.14-7.27-.76-3.52-3.32-5.95-6.82-7.42m-20.08-4.71c.03-.57,.2-1.12,.4-1.65,.48-1.27,1.29-2.49,2.25-3.48,.31-.31,.63-.61,1.01-.84,.14-.1,.4-.27,.59-.23,.36,.09-.32,1.82-.39,2-.43,1.19-.99,2.29-1.81,3.29-.36,.44-.77,.86-1.22,1.23-.13,.1-.49,.45-.7,.37-.2-.07-.15-.55-.13-.69m20.96,16.66c-.09,.18-.33,.64-.43,.82,0,0-3.04,4.55-2.59,7.17,.31,1.72,1.29,4.1-1.06,9.57-1.29,3.02-2.87,6.54-7.64,12.07,0,0-1.6,1.67-2.46,2.32,0,0-4.06,3.38-5.43,3.34-1.23-.03-2.24-.71-3.03-1.43-.62-.58-2.12-2.19-2.25-2.36-7.28-9.17-7.59-16.64-6.23-21.91,.44-1.69,1.58-2.95,2.93-3.89,2.7-1.85,6.24-2.38,6.74-2.45,1.42-.11,2.07-.18,3.49-.21,1.08-.02,2.15-.02,3.23,.01,.62,.02,1.24,.05,1.84,.1,.84,.07,1.69,.17,2.51,.34,.52,.1,1.02,.26,1.54,.33,.38,.05,.83,0,.88-.44,0-.08,0-.16,0-.24-.16-.47-.96-1.24-3.97-2-.6-.15-1.31-.26-2.08-.35-.43-.05-.89-.08-1.36-.11-.28-.01-.56-.03-.85-.04-.04,0-.1,0-.14,0-.29,0-.57-.01-.87-.03h-.07c-.34,0-.66-.01-.98-.01h-.97c-5.09,.04-9.62,.55-9.62,.55,0,0-8.11,1.16-8.11-4.78s7.43-7.21,12.3-7.9c.03,0,.06,0,.09-.01h.04s.08-.01,.08-.01h0c.24-.03,.49-.07,.73-.1,.15-.01,.3-.03,.45-.04,.35-.04,.7-.07,1.05-.1,.79-.05,1.7-.1,2.57-.1h.43c1.88,.01,3.76,.15,5.61,.38,1.35,.16,2.7,.4,4.02,.73,6.42,1.33,12.58,4.27,9.64,10.82m107.33-5.74h-10.82v4.92h3.56v26.68h-3.56v4.93h14.37v-4.93h-3.55v-31.6Zm116.12,17.76v-.11c4.86-.61,7.31-3.38,7.31-8.14,0-8.58-7.64-8.75-14.14-8.75h-17.16v5.2h4.47v25.37h-4.47v5.2h16.83c5.63,0,15.56,.32,15.56-10.45,0-4.76-3.82-8.14-8.41-8.31m-11.96-11.8h4.53c3.33,0,7.21,.27,7.21,4.59s-3.83,5.15-7.43,5.15h-4.31v-9.74Zm5.02,25.37h-5.02v-10.72h5.08c3.82,0,7.75,0,7.75,5.14,0,4.81-3.17,5.58-7.81,5.58m-55.8-16.46h-.11c-1.75-2.68-4.26-4.6-8.36-4.6-8.25,0-11.7,5.91-11.7,13.45,0,6.51,4.05,12.41,10.93,12.41,4.43,0,6.18-1.09,8.58-3.71v2.9c0,3.22-2.3,6.34-5.52,6.34-2.34,0-4.54-.43-4.75-3.56h-7.92c.39,6.08,4.37,8.48,11.91,8.48,10.27,0,13.55-5.91,13.55-12.41v-18.32h3.55v-4.91h-10.16v3.93Zm-6.45,16.07c-4.09,0-6.18-3.55-6.18-7.49s1.7-7.99,6.29-7.99,6.12,3.77,6.12,7.71c0,4.15-1.74,7.76-6.23,7.76m92.5-20.77c-8.02,0-13.65,5.03-13.65,13.55s5.62,13.56,13.65,13.56,13.67-5.03,13.67-13.56-5.62-13.55-13.67-13.55m0,21.92c-4.64,0-6.1-4.32-6.1-8.37s1.47-8.37,6.1-8.37,6.12,4.32,6.12,8.37-1.47,8.37-6.12,8.37m-49.21-12.08c-1.1-6.29-6.06-9.84-12.23-9.84-8.11,0-13.55,5.19-13.55,13.23,0,8.52,4.75,13.88,13.71,13.88,5.85,0,10.88-2.52,12.08-8.69h-6.83c-.7,2.73-2.51,3.77-5.03,3.77-4.04,0-6.39-2.52-6.39-6.56h18.58c0-1.81,0-3.78-.33-5.79m-18.24,1.15c0-3.44,2.03-6.08,5.68-6.08s5.63,2.4,5.63,6.08h-11.31Zm107.28,.21c0-7.76-2.67-11.2-10.92-11.2-6.01,0-12.01,1.2-12.45,8.53h6.83c.22-2.96,1.97-4.16,4.8-4.16,2.68,0,4.93,.93,4.93,3.94v1.96h-2.58c-6.38,0-14.8,.23-14.8,8.65,0,5.46,4.15,8.2,8.9,8.2,3.88,0,6.23-1.04,8.47-4.49h.11v3.73h9.99v-4.93h-3.28v-10.23Zm-13.49,10.99c-2.24,0-3.88-1.09-3.88-3.5,0-3.45,3.33-4.04,7.05-4.04h3.5c.11,4.38-2.36,7.55-6.67,7.55m29.87-16.46h-.12v-4.97h-10.32v4.91h3.55v15.75h-3.55v4.93h15.19v-4.93h-4.38v-7.43c.27-4.43,2.52-7.99,7.32-7.99,1.1,0,2.25,0,3.29,.28v-5.96c-.98-.22-2.08-.32-3.11-.32-3.78,0-6.34,2.46-7.87,5.74m-165.39,4.1c-1.1-6.29-6.07-9.84-12.24-9.84-8.08,0-13.54,5.19-13.54,13.23,0,8.52,4.75,13.88,13.71,13.88,5.85,0,10.86-2.52,12.07-8.69h-6.84c-.71,2.73-2.51,3.77-5.02,3.77-4.05,0-6.4-2.52-6.4-6.56h18.57c0-1.81,0-3.78-.32-5.79m-18.25,1.15c0-3.44,2.02-6.08,5.68-6.08s5.63,2.4,5.63,6.08h-11.31Z"/><rect class="cls-2" width="493.93" height="161"/><g><path class="cls-1" d="M157.31,90.98c.74-.43,1.62-.73,2.63-.92,1.01-.18,1.96-.28,2.87-.28s1.84,.09,2.82,.28c.98,.19,1.84,.49,2.58,.92v3.27c0,.9,.28,1.85,.84,2.83,.56,.98,1.39,1.89,2.5,2.71,1.12,.82,2.49,1.5,4.14,2.03,1.65,.53,3.55,.8,5.73,.8,3.24,0,5.63-.57,7.16-1.71,1.54-1.15,2.31-2.64,2.31-4.5,0-3.29-2.55-5.68-7.64-7.17l-10.42-3.03c-1.91-.53-3.74-1.22-5.49-2.07-1.75-.85-3.29-1.91-4.61-3.18-1.33-1.28-2.39-2.8-3.18-4.58-.8-1.78-1.2-3.92-1.2-6.41,0-3.03,.6-5.65,1.79-7.85,1.19-2.21,2.73-4.03,4.61-5.5,1.89-1.45,3.98-2.53,6.29-3.22,2.31-.69,4.58-1.04,6.81-1.04,3.34,0,6.11,.49,8.32,1.47,2.2,.98,3.89,2.25,5.05,3.79v-3.19c.74-.43,1.59-.73,2.54-.92,.96-.19,1.86-.28,2.71-.28s1.76,.09,2.75,.28c.98,.19,1.84,.49,2.58,.92v18.56c-.74,.43-1.6,.73-2.58,.92-.98,.19-1.93,.28-2.82,.28s-1.86-.09-2.87-.28c-1.01-.19-1.89-.49-2.63-.92v-1.91c0-1.06-.23-2.08-.68-3.06-.45-.98-1.13-1.86-2.03-2.63-.9-.77-2.07-1.4-3.5-1.87-1.44-.48-3.11-.72-5.02-.72-1.7,0-3.14,.27-4.34,.8-1.19,.53-2.14,1.23-2.83,2.07-.74,.91-1.11,1.97-1.11,3.19,0,1.12,.36,2.15,1.07,3.1,.72,.96,2.16,1.73,4.34,2.31l9.87,2.79c2.44,.69,4.73,1.5,6.89,2.43,2.15,.93,4.03,2.1,5.65,3.51,1.62,1.4,2.89,3.12,3.82,5.14,.93,2.01,1.39,4.49,1.39,7.4,0,3.14-.62,5.82-1.87,8.05-1.25,2.23-2.89,4.06-4.94,5.49-2.04,1.44-4.34,2.49-6.89,3.15-2.54,.67-5.09,.99-7.64,.99-3.23,0-6.25-.52-9.03-1.55-2.79-1.03-4.87-2.48-6.25-4.34v3.75c-.74,.43-1.61,.73-2.59,.92-.98,.18-1.89,.28-2.74,.28s-1.74-.1-2.67-.28c-.93-.18-1.76-.49-2.5-.92v-20.07Z"/><path class="cls-1" d="M214.95,102.05l16.32-48.98h16.23l15.68,48.98h4.46c.26,.85,.46,1.68,.6,2.51,.13,.82,.2,1.61,.2,2.35s-.07,1.54-.2,2.39c-.13,.85-.33,1.7-.6,2.55h-23.16c-.27-.74-.46-1.53-.6-2.35-.14-.82-.2-1.58-.2-2.27s.06-1.43,.2-2.23c.14-.8,.33-1.57,.6-2.31h4.77l-2.14-7.48h-17.04l-2.31,7.48h4.86c.27,.74,.46,1.51,.6,2.31,.13,.79,.2,1.54,.2,2.23s-.07,1.45-.2,2.27c-.14,.83-.33,1.61-.6,2.35h-22.53c-.26-.85-.46-1.7-.6-2.55-.14-.85-.2-1.64-.2-2.39s.06-1.53,.2-2.35c.14-.82,.33-1.66,.6-2.51h4.86Zm29.85-15.77l-5.89-21.35-6.29,21.35h12.18Z"/><path class="cls-1" d="M286.55,102.05V63.82h-8.68v9.32c-.74,.42-1.63,.73-2.67,.91-1.04,.19-1.97,.28-2.82,.28s-1.77-.09-2.75-.28c-.98-.18-1.85-.49-2.59-.91v-19.36h52.45v19.36c-.74,.42-1.63,.73-2.67,.91-1.04,.19-1.97,.28-2.82,.28s-1.77-.09-2.75-.28c-.98-.18-1.84-.49-2.59-.91v-9.32h-8.68v38.23h5.26c.27,.85,.46,1.69,.6,2.51,.13,.83,.2,1.61,.2,2.35s-.07,1.54-.2,2.39c-.14,.85-.33,1.7-.6,2.55h-23.96c-.27-.85-.47-1.7-.6-2.55-.13-.85-.2-1.64-.2-2.39s.06-1.53,.2-2.35c.13-.82,.33-1.66,.6-2.51h5.25Z"/><path class="cls-1" d="M325.13,58.87c0-.81,.15-1.57,.46-2.26,.31-.7,.72-1.29,1.24-1.8,.53-.5,1.14-.9,1.84-1.18,.7-.28,1.44-.42,2.22-.42s1.51,.14,2.2,.42c.7,.28,1.31,.68,1.83,1.18,.53,.51,.94,1.11,1.25,1.8,.31,.69,.46,1.45,.46,2.26s-.16,1.58-.46,2.28c-.31,.7-.72,1.3-1.25,1.81-.52,.5-1.13,.9-1.83,1.18-.69,.29-1.42,.43-2.2,.43s-1.52-.14-2.22-.43c-.7-.29-1.31-.68-1.84-1.18-.52-.51-.94-1.11-1.24-1.81-.31-.7-.46-1.46-.46-2.28m5.76,4.43c.6,0,1.15-.11,1.67-.34,.52-.22,.97-.53,1.36-.92,.39-.39,.69-.85,.91-1.39,.21-.54,.32-1.14,.32-1.78s-.11-1.2-.32-1.74c-.22-.53-.52-1-.91-1.39-.39-.39-.84-.7-1.36-.92-.52-.22-1.08-.34-1.67-.34s-1.17,.11-1.69,.34c-.53,.22-.98,.53-1.36,.92-.39,.39-.69,.86-.91,1.39-.22,.54-.32,1.12-.32,1.74s.11,1.24,.32,1.78c.22,.54,.52,1.01,.91,1.39,.39,.39,.84,.7,1.36,.92,.53,.23,1.09,.34,1.69,.34m-2.03-2.1v-4.65h-.46c-.04-.14-.06-.24-.07-.31-.01-.07-.01-.14-.01-.21,0-.05,0-.11,.01-.17,0-.07,.03-.17,.07-.31h2.9c.31,0,.59,.05,.85,.15,.26,.09,.48,.24,.66,.41,.18,.18,.32,.39,.42,.62,.1,.24,.15,.49,.15,.76,0,.32-.07,.66-.22,1-.15,.35-.44,.63-.87,.84l.85,1.87h.48c.05,.14,.08,.24,.08,.32,0,.07,0,.13,0,.2,0,.05,0,.11-.01,.17,0,.07-.04,.16-.09,.29h-1.41l-1.18-2.69h-.96v1.71h.57c.03,.14,.06,.24,.07,.32,0,.07,.01,.13,.01,.2,0,.05,0,.11-.01,.18,0,.07-.04,.17-.09,.3h-2.2c-.04-.13-.06-.23-.07-.3-.01-.07-.01-.13-.01-.18,0-.07,0-.14,.01-.2,0-.08,.03-.18,.07-.32h.46Zm2.2-2.76c.31,0,.56-.08,.72-.26,.17-.18,.25-.4,.25-.69,0-.26-.08-.47-.24-.64-.16-.17-.39-.25-.68-.25h-1.05v1.84h1.01Z"/></g></g></g></svg>